<?xml version="1.0" encoding="UTF-8"?>
<svg id="SVGDoc" width="37" height="37" xmlns="http://www.w3.org/2000/svg" version="1.1" xmlns:xlink="http://www.w3.org/1999/xlink" xmlns:avocode="https://avocode.com/" viewBox="0 0 37 37"><defs></defs><desc>Generated with Avocode.</desc><g><g><title>Group</title><g><title>Vector</title><path d="M6.57612,20.66771c5.38799,0 9.75586,4.36789 9.75586,9.75586v6.57614v0h4.33594v0v-6.57614c0,-7.78244 -6.30913,-14.09161 -14.0918,-14.09161v-2.70882v0l-6.57612,4.87669v0l6.57612,4.87669v0z" fill="#cca15c" fill-opacity="1"></path></g><g><title>Vector</title><path d="M18.49995,19.38849c0.67211,-0.71521 1.38748,-1.36574 2.16797,-1.95117v-10.86122v0h2.70996v0l-4.87793,-6.57614v0l-4.87793,6.57614v0h2.70996v0v10.86122c0.78049,0.58543 1.49586,1.23596 2.16797,1.95117z" fill="#cca15c" fill-opacity="1"></path></g><g><title>Vector</title><path d="M30.42389,16.33195c-4.20319,0 -7.96555,1.85023 -10.54733,4.76875c0.93487,1.3299 1.67175,2.80481 2.17712,4.38478c1.69819,-2.87114 4.79279,-4.81778 8.37021,-4.81778v2.70882v0l6.57612,-4.87669v0l-6.57612,-4.87669v0z" fill="#cca15c" fill-opacity="1"></path></g></g></g></svg>