<?xml version="1.0" encoding="UTF-8"?>
<svg id="SVGDoc" width="37" height="37" xmlns="http://www.w3.org/2000/svg" version="1.1" xmlns:xlink="http://www.w3.org/1999/xlink" xmlns:avocode="https://avocode.com/" viewBox="0 0 37 37"><defs></defs><desc>Generated with Avocode.</desc><g><g><title>002-competition</title><g><title>Group</title><g><title>Vector</title><path d="M0,23.91953v0h10.91206v0v13.08018v0h-10.91206v0z" fill="#cca15c" fill-opacity="1"></path></g><g><title>Vector</title><path d="M26.08784,28.25569v0h10.91206v0v8.74402v0h-10.91206v0z" fill="#cca15c" fill-opacity="1"></path></g><g><title>Vector</title><path d="M13.08002,19.58377h10.83984v17.41594h-10.83984zM15.24799,32.59145h6.50391v-2.16788h-2.16797v-6.50404h-2.16797c0,1.1927 -0.97561,2.16829 -2.16797,2.16829v2.16788c0.78049,0 1.53934,-0.21712 2.16797,-0.58543v2.75331h-2.16797z" fill="#cca15c" fill-opacity="1"></path></g><g><title>Vector</title><path d="M8.74409,2.16783v0h2.16797v0v10.40804v0l3.61324,2.4093v0v-14.98521v0h-5.78121v0z" fill="#cca15c" fill-opacity="1"></path></g><g><title>Vector</title><path d="M20.30663,-0.00005v0h-3.61336v0v16.43047v0l1.80668,1.20465v0l1.80668,-1.20465v0z" fill="#cca15c" fill-opacity="1"></path></g><g><title>Vector</title><path d="M26.08784,2.16783v0h2.16797v0v-2.16788v0h-5.78121v0v14.9848v0l3.61324,-2.40889v0z" fill="#cca15c" fill-opacity="1"></path></g></g></g></g></svg>