<?xml version="1.0" encoding="UTF-8"?>
<svg id="SVGDoc" width="37" height="37" xmlns="http://www.w3.org/2000/svg" version="1.1" xmlns:xlink="http://www.w3.org/1999/xlink" xmlns:avocode="https://avocode.com/" viewBox="0 0 37 37"><defs></defs><desc>Generated with Avocode.</desc><g><g><title>Group</title><g><title>Vector</title><path d="M32.15813,9.71956c1.04073,1.62611 1.79947,3.4471 2.21134,5.33318l2.63042,0.32506v6.24408l-2.63031,0.32506c-0.41199,1.88608 -1.17073,3.70706 -2.21146,5.33318l1.58272,2.03769l-4.42268,4.42268l-2.03796,-1.58244c-1.62598,1.04068 -3.44696,1.79956 -5.33306,2.21114l-0.32536,2.63054h-6.24367l-0.32536,-2.63013c-1.8861,-0.41199 -3.70708,-1.17087 -5.33306,-2.21155l-2.03796,1.58244l-4.42268,-4.42268l1.58272,-2.03769c-1.04073,-1.62611 -1.79947,-3.4471 -2.21134,-5.33318l-2.63042,-0.32506v-6.24408l2.63042,-0.32506c0.41187,-1.88608 1.17062,-3.70706 2.21134,-5.33318l-1.58272,-2.0381l4.42268,-4.42268l2.03796,1.58286c1.62598,-1.04068 3.44696,-1.79956 5.33306,-2.21155l0.32536,-2.63013h6.24367l0.32536,2.63013c1.8861,0.41199 3.70708,1.17087 5.33306,2.21155l2.03796,-1.58286l4.42268,4.42268zM30.42377,18.49983c0,-6.56914 -5.3548,-11.92374 -11.92383,-11.92374c-6.56902,0 -11.92383,5.3546 -11.92383,11.92374c0,6.56873 5.3548,11.92374 11.92383,11.92374c6.56902,0 11.92383,-5.35501 11.92383,-11.92374z" fill="#cca15c" fill-opacity="1"></path></g><g><title>Vector</title><path d="M28.25581,18.49983c0,5.37643 -4.37943,9.75586 -9.75586,9.75586c-5.37655,0 -9.75586,-4.37943 -9.75586,-9.75586c0,-5.37685 4.37931,-9.75586 9.75586,-9.75586c5.37643,0 9.75586,4.37901 9.75586,9.75586zM23.59474,16.00648l-1.51749,-1.51735l-4.66118,4.63939l-2.49332,-2.47151l-1.51749,1.51735l4.0107,4.03253z" fill="#cca15c" fill-opacity="1"></path></g></g></g></svg>