<?xml version="1.0" encoding="UTF-8"?>
<svg id="SVGDoc" width="37" height="37" xmlns="http://www.w3.org/2000/svg" version="1.1" xmlns:xlink="http://www.w3.org/1999/xlink" xmlns:avocode="https://avocode.com/" viewBox="0 0 37 37"><defs></defs><desc>Generated with Avocode.</desc><g><g><title>Group</title><g><title>Vector</title><path d="M14.52557,6.85733v0h-5.14618v0l8.82214,8.89439v0z" fill="#cca15c" fill-opacity="1"></path></g><g><title>Vector</title><path d="M24.46214,6.85733v0h-7.58812v0l3.79406,9.17825v0z" fill="#cca15c" fill-opacity="1"></path></g><g><title>Vector</title><path d="M21.42236,0.3537v0h-1.51657v0l-2.70401,4.33575v0h6.93054v0z" fill="#cca15c" fill-opacity="1"></path></g><g><title>Vector</title><path d="M9.37939,4.68945v0h5.26703v0l2.70401,-4.33575v0h-3.6351v0z" fill="#cca15c" fill-opacity="1"></path></g><g><title>Vector</title><path d="M26.81035,6.85733v0l-3.67596,8.89439v0l8.82225,-8.89439v0z" fill="#cca15c" fill-opacity="1"></path></g><g><title>Vector</title><path d="M27.6207,0.3537v0h-3.6422v0l2.70996,4.33575v0h5.26817v0z" fill="#cca15c" fill-opacity="1"></path></g><g><title>Vector</title><path d="M11.0872,33.58089v0l-8.03192,-8.03334v0l-3.05534,3.06189v0l8.02197,8.03664v0z" fill="#cca15c" fill-opacity="1"></path></g><g><title>Vector</title><path d="M31.45253,19.92845v0l-4.98905,4.92531c-1.01658,1.01637 -2.39548,1.5878 -3.83343,1.5878h-9.62242v0v-2.16788v0h9.82807v0v-4.33617v0h-11.93321c-1.43795,0 -2.81685,0.57143 -3.83343,1.58821l-2.48257,2.48758v0l8.03352,8.03458v0l1.27052,-1.27057v0h8.74706c2.58282,0 5.13199,-1.02585 6.95858,-2.85178l7.40364,-7.41v0c0,0 -0.78369,-0.7836 -0.7925,-0.79225c-1.29971,-1.28334 -3.46333,-1.08641 -4.75479,0.20517z" fill="#cca15c" fill-opacity="1"></path></g></g></g></svg>