<svg width="39" height="39" viewBox="0 0 39 39" fill="none" xmlns="http://www.w3.org/2000/svg">
<path d="M12.4407 30.335C10.192 30.335 8.3692 32.1579 8.3692 34.4065C8.3692 36.6552 10.1921 38.478 12.4407 38.478C14.6894 38.478 16.5123 36.6551 16.5123 34.4065C16.5123 32.1579 14.6894 30.335 12.4407 30.335ZM12.4407 36.6685C11.1915 36.6685 10.1788 35.6558 10.1788 34.4066C10.1788 33.1573 11.1915 32.1446 12.4407 32.1446C13.69 32.1446 14.7027 33.1573 14.7027 34.4066C14.7028 35.6558 13.69 36.6685 12.4407 36.6685Z" fill="#222222"/>
<path d="M29.6318 30.335C27.3831 30.335 25.5603 32.1579 25.5603 34.4065C25.5603 36.6552 27.3832 38.478 29.6318 38.478C31.8804 38.478 33.7034 36.6551 33.7034 34.4065C33.7034 32.1579 31.8805 30.335 29.6318 30.335ZM29.6318 36.6685C28.3826 36.6685 27.3699 35.6558 27.3699 34.4066C27.3699 33.1573 28.3826 32.1446 29.6318 32.1446C30.8811 32.1446 31.8938 33.1573 31.8938 34.4066C31.8939 35.6558 30.8811 36.6685 29.6318 36.6685Z" fill="#222222"/>
<path d="M38.8156 6.58415C38.6272 6.37832 38.3694 6.24948 38.0918 6.2222L8.64079 5.81505L7.82649 3.32684C7.25282 1.66351 5.69521 0.54059 3.93584 0.521973H0.904795C0.405075 0.521973 0 0.927047 0 1.42677C0 1.92649 0.405075 2.33156 0.904795 2.33156H3.93584C4.91961 2.35329 5.78587 2.98498 6.10739 3.91497L11.8528 21.2417L11.4005 22.2822C10.8959 23.5833 11.0474 25.0478 11.8076 26.2181C12.5605 27.3675 13.8272 28.0768 15.2006 28.1181H32.7989C33.2986 28.1181 33.7037 27.7131 33.7037 27.2133C33.7037 26.7136 33.2986 26.3086 32.7989 26.3086H15.2005C14.4249 26.2892 13.711 25.8811 13.3005 25.2228C12.8945 24.5725 12.8111 23.7713 13.0743 23.0512L13.4362 22.2369L32.4821 20.2464C34.5742 20.016 36.2951 18.4944 36.7799 16.4462L38.9515 7.35308C39.0493 7.09123 38.9973 6.79673 38.8156 6.58415ZM35.0155 16.0392C34.7218 17.3576 33.6024 18.3301 32.2559 18.4369L13.4362 20.3821L9.22892 7.62463L36.9608 8.03179L35.0155 16.0392Z" fill="#222222"/>
</svg>
