<?xml version="1.0" encoding="UTF-8"?>
<svg id="SVGDoc" width="39" height="39" xmlns="http://www.w3.org/2000/svg" version="1.1" xmlns:xlink="http://www.w3.org/1999/xlink" xmlns:avocode="https://avocode.com/" viewBox="0 0 39 39"><defs></defs><desc>Generated with Avocode.</desc><g><g><title>Group</title><g><title>Vector</title><path d="M16.51215,34.40625c0,2.24863 -1.82281,4.07126 -4.07146,4.07126c-2.24865,0 -4.07158,-1.82263 -4.07158,-4.07126c0,-2.24863 1.82281,-4.07167 4.07158,-4.07167c2.24865,0 4.07158,1.82304 4.07146,4.07167zM14.70261,34.40625c0,-1.24915 -1.01269,-2.26181 -2.26192,-2.26181c-1.24935,0 -2.26204,1.01266 -2.26204,2.26181c0,1.24915 1.01269,2.26181 2.26204,2.26181c1.24924,0 2.26192,-1.01266 2.26192,-2.26181z" fill="#ffffff" fill-opacity="1"></path></g><g><title>Vector</title><path d="M33.70335,34.40625c0,2.24863 -1.82293,4.07126 -4.07158,4.07126c-2.24854,0 -4.07146,-1.82263 -4.07146,-4.07126c0,-2.24863 1.82281,-4.07167 4.07146,-4.07167c2.24876,0 4.07158,1.82304 4.07158,4.07167zM31.8937,34.40625c0,-1.24915 -1.01269,-2.26181 -2.26192,-2.26181c-1.24924,0 -2.26192,1.01266 -2.26192,2.26181c0,1.24915 1.01269,2.26181 2.26192,2.26181c1.24924,0 2.26204,-1.01266 2.26192,-2.26181z" fill="#ffffff" fill-opacity="1"></path></g><g><title>Vector</title><path d="M38.95139,7.35269l-2.17152,9.09338c-0.48489,2.04799 -2.20573,3.56946 -4.29783,3.80017l-19.04583,1.99031l-0.36198,0.8145c-0.26321,0.72015 -0.17979,1.52106 0.22614,2.17159c0.41061,0.65836 1.1245,1.06622 1.90006,1.08559h17.59838c0.49976,0 0.90477,0.40498 0.90477,0.90472c0,0.49974 -0.40501,0.90472 -0.90477,0.90472h-17.59827c-1.37341,-0.0412 -2.64004,-0.75064 -3.39294,-1.90009c-0.76023,-1.17004 -0.91175,-2.63466 -0.40718,-3.93571l0.45238,-1.04027l-5.74551,-17.32695c-0.32146,-0.92986 -1.18778,-1.56184 -2.17152,-1.58327h-3.03108c-0.49965,0 -0.90477,-0.4054 -0.90477,-0.90514c0,-0.49974 0.40512,-0.90472 0.90477,-0.90472h3.03108c1.75941,0.01854 3.31696,1.14162 3.89065,2.80481l0.81436,2.4884l29.45091,0.40704c0.27763,0.02719 0.53535,0.15614 0.72384,0.36214c0.18173,0.21259 0.23369,0.50716 0.13584,0.76877zM36.9608,8.03165l-27.7319,-0.40746l4.20731,12.7576l18.81969,-1.9454c1.34651,-0.1067 2.46586,-1.07899 2.75951,-2.39735z" fill="#ffffff" fill-opacity="1"></path></g></g></g></svg>