<?xml version="1.0" encoding="UTF-8"?><svg viewBox="0 0 512.01 512.01" xmlns="http://www.w3.org/2000/svg" xmlns:xlink="http://www.w3.org/1999/xlink"><style>:root>svg{display:none}:root>svg:target{display:block}</style><svg viewBox="0 0 37 37" id="about-01" xmlns="http://www.w3.org/2000/svg"><path d="M0 23.92h10.912V37H0z" fill="#cca15c"/><path d="M26.088 28.256H37V37H26.088z" fill="#cca15c"/><path d="M13.08 19.584h10.84V37H13.08zm2.168 13.007h6.504v-2.167h-2.168V23.92h-2.168a2.174 2.174 0 01-2.168 2.168v2.168c.78 0 1.54-.217 2.168-.586v2.754h-2.168z" fill="#cca15c"/><g><path d="M8.744 2.168h2.168v10.408l3.613 2.41V0h-5.78z" fill="#cca15c"/></g><g><path d="M20.307 0h-3.614v16.43l1.807 1.205 1.807-1.205z" fill="#cca15c"/></g><g><path d="M26.088 2.168h2.168V0h-5.781v14.985l3.613-2.41z" fill="#cca15c"/></g></svg><svg viewBox="0 0 37 37" id="about-02" xmlns="http://www.w3.org/2000/svg"><path d="M32.158 9.72a16.456 16.456 0 012.211 5.333l2.63.325v6.244l-2.63.325a16.459 16.459 0 01-2.21 5.333l1.582 2.038-4.423 4.422-2.038-1.582a16.448 16.448 0 01-5.333 2.211L21.622 37h-6.244l-.325-2.63a16.458 16.458 0 01-5.333-2.211L7.682 33.74l-4.423-4.422 1.583-2.038a16.456 16.456 0 01-2.212-5.333L0 21.622v-6.244l2.63-.325A16.456 16.456 0 014.842 9.72L3.259 7.68 7.682 3.26 9.72 4.842a16.458 16.458 0 015.333-2.212L15.378 0h6.244l.325 2.63a16.458 16.458 0 015.333 2.212l2.038-1.583 4.423 4.422zm-1.734 8.78c0-6.57-5.355-11.924-11.924-11.924-6.57 0-11.924 5.355-11.924 11.924 0 6.569 5.355 11.924 11.924 11.924 6.569 0 11.924-5.355 11.924-11.924z" fill="#cca15c"/><g><path d="M28.256 18.5c0 5.376-4.38 9.756-9.756 9.756-5.377 0-9.756-4.38-9.756-9.756 0-5.377 4.38-9.756 9.756-9.756s9.756 4.379 9.756 9.756zm-4.661-2.494l-1.518-1.517-4.66 4.64-2.494-2.472-1.518 1.517 4.011 4.033z" fill="#cca15c"/></g></svg><svg viewBox="0 0 37 37" id="about-03" xmlns="http://www.w3.org/2000/svg"><path d="M6.576 20.668c5.388 0 9.756 4.368 9.756 9.756V37h4.336v-6.576c0-7.783-6.31-14.092-14.092-14.092v-2.709L0 18.5l6.576 4.877z" fill="#cca15c"/><path d="M18.5 19.388a16.814 16.814 0 012.168-1.95V6.575h2.71L18.5 0l-4.878 6.576h2.71v10.861c.78.586 1.496 1.236 2.168 1.951z" fill="#cca15c"/><g><path d="M30.424 16.332c-4.203 0-7.966 1.85-10.547 4.769a16.202 16.202 0 012.177 4.384c1.698-2.87 4.792-4.817 8.37-4.817v2.709L37 18.5l-6.576-4.877z" fill="#cca15c"/></g></svg><svg viewBox="0 0 37 37" id="about-04" xmlns="http://www.w3.org/2000/svg"><path d="M17.416 0h2.168v2.168h-2.168z" fill="#cca15c"/><g><path d="M24.353 2.601c.976 1.193 1.821 2.732 2.472 4.64l-2.038.693c-1.236-3.555-3.23-5.766-5.203-5.766v7.588h-2.168V2.168c-1.973 0-3.967 2.211-5.203 5.766l-2.038-.693c.65-1.908 1.496-3.447 2.471-4.64C5.08 4.38 0 11.346 0 18.001v.499h2.168c0-.304 0-.607.022-.91a2.757 2.757 0 012.731-2.342h1.07a2.757 2.757 0 012.753 2.753v.499h2.168v-.542a2.748 2.748 0 012.753-2.71h.998a2.757 2.757 0 012.753 2.753v10.327h-2.168v2.168h2.168v2.168A4.349 4.349 0 0021.752 37a4.349 4.349 0 004.336-4.336v-2.168H23.92v2.168a2.174 2.174 0 01-2.168 2.168 2.174 2.174 0 01-2.168-2.168V18.001a2.757 2.757 0 012.753-2.753h.997a2.76 2.76 0 012.754 2.515v.737h2.168V18a2.757 2.757 0 012.753-2.752h.997c1.453 0 2.696 1.149 2.783 2.58.021.217.043.433.043.672H37V18c0-6.568-5.037-13.621-12.647-15.399z" fill="#cca15c"/></g></svg><svg fill="none" viewBox="0 0 7 12" id="angle-left" xmlns="http://www.w3.org/2000/svg"><path d="M2 1l3 5-3 5" stroke="#222" stroke-width="3"/></svg><svg fill="none" viewBox="0 0 7 12" id="angle-left-active" xmlns="http://www.w3.org/2000/svg"><path d="M2 1l3 5-3 5" stroke="#C29958" stroke-width="3"/></svg><svg viewBox="0 0 16 27" id="arrow-left" xmlns="http://www.w3.org/2000/svg"><path d="M3.414 13.5L15.207 1.707 13.793.293.586 13.5l13.207 13.207 1.414-1.414z" fill="#cca15c"/></svg><svg viewBox="0 0 15 27" id="arrow-right" xmlns="http://www.w3.org/2000/svg"><path d="M12.086 13.5L.293 1.707 1.707.293 14.914 13.5 1.707 26.707.293 25.293z" fill="#cca15c"/></svg><svg viewBox="0 0 37 37" id="benefits-01" xmlns="http://www.w3.org/2000/svg"><path d="M30.424 18.5c0 6.568-5.355 11.923-11.924 11.923-6.57 0-11.924-5.355-11.924-11.923 0-6.57 5.355-11.924 11.924-11.924 6.569 0 11.924 5.355 11.924 11.924zm-3.404-2.775l-5.897-.846L18.5 9.546l-2.623 5.333-5.897.846 4.27 4.162-1.018 5.854 5.268-2.775 5.268 2.775-1.019-5.854z" fill="#cca15c"/><path d="M37 18.5C37 28.668 28.668 37 18.5 37S0 28.668 0 18.5 8.332 0 18.5 0 37 8.332 37 18.5zm-4.408 0c0-7.762-6.33-14.092-14.092-14.092-7.761 0-14.092 6.33-14.092 14.092 0 7.761 6.33 14.092 14.092 14.092 7.761 0 14.092-6.33 14.092-14.092z" fill="#cca15c"/><g><path d="M19.692 16.86L18.5 14.445l-1.192 2.415-2.664.386 1.927 1.88-.454 2.654 2.383-1.253 2.383 1.253-.454-2.654 1.927-1.88z" fill="#cca15c"/></g></svg><svg viewBox="0 0 37 37" id="benefits-02" xmlns="http://www.w3.org/2000/svg"><path d="M37 29.34c0 4.184-3.476 7.66-7.66 7.66s-7.588-3.476-7.588-7.66c0-4.185 3.404-7.588 7.588-7.588S37 25.155 37 29.34zm-3.65-1.41l-1.517-1.517-3.577 3.555-1.41-1.387-1.517 1.517 2.927 2.949z" fill="#cca15c"/><g><path d="M19.584 29.34c0 .975.195 1.886.455 2.775-1.214.281-2.45.477-3.707.477C7.357 32.592 0 25.307 0 16.332 0 7.356 7.357 0 16.332 0c8.975 0 16.26 7.356 16.26 16.332 0 1.257-.195 2.493-.477 3.707-.89-.26-1.8-.455-2.775-.455-5.377 0-9.756 4.38-9.756 9.756zm6.504-11.924h2.168v-2.168h-2.168zm-3.62-8.76l1.539 1.54 1.517-1.539-1.517-1.517zm-7.22-2.08h2.168V4.408h-2.168zm-8.672 8.672H4.408v2.168h2.168zm3.62 8.758l-1.539-1.539-1.517 1.54 1.517 1.517zm0-15.35L8.658 7.141 7.14 8.657l1.517 1.54zm7.22 17.432h-2.168v2.168h2.168zm4.336-10.84h-4.336V8.744h-2.168v8.672h6.504z" fill="#cca15c"/></g></svg><svg viewBox="0 0 37 33" id="benefits-03" xmlns="http://www.w3.org/2000/svg"><path d="M28.585 22.3c2.103-1.301 5.03-1.084 6.83.694 2.102 2.125 2.124 5.55 0 7.675-2.111 2.11-5.564 2.112-7.676 0a5.458 5.458 0 01-.694-6.83h.001l-5.58-5.6 1.518-1.518 5.6 5.58zm6.244 4.532c0-.824-.304-1.648-.954-2.299-1.258-1.28-3.317-1.28-4.596 0-1.28 1.257-1.28 3.317 0 4.597 1.235 1.236 3.36 1.236 4.596 0 .65-.63.954-1.453.954-2.298z" fill="#cca15c"/><g><path d="M15.677 17.046l-1.539-1.518 2.298-2.298-1.54-1.54L12.6 13.99l-1.518-1.54 3.816-3.815 8.087 8.087 3.035-3.036a7.55 7.55 0 000-10.71 7.55 7.55 0 00-10.71 0l-1.15 1.127-1.149-1.127c-2.948-2.97-7.834-2.97-10.782 0a7.55 7.55 0 000 10.71L14.16 25.567l7.306-7.329-3.49-3.49z" fill="#cca15c"/></g></svg><svg viewBox="0 0 37 31" id="benefits-04" xmlns="http://www.w3.org/2000/svg"><path d="M0 22.004h16.746l-3.252 6.504h-2.582v2.168h15.176v-2.168h-2.582l-3.252-6.504H37v-2.168H0z" fill="#cca15c"/><path d="M7.66 16.215l6.309-6.33a4.279 4.279 0 000-6.114c-1.626-1.648-4.488-1.648-6.114 0l-.195.173-.195-.173c-1.626-1.648-4.56-1.648-6.186 0A4.263 4.263 0 000 6.828c0 1.149.456 2.255 1.28 3.057z" fill="#cca15c"/><g><path d="M34.832 11.164V8.996c0-1.308-.67-2.46-1.587-3.252h-5.642c-.917.792-1.515 1.944-1.515 3.252v2.168a2.168 2.168 0 100 4.336h8.744a2.168 2.168 0 100-4.336z" fill="#cca15c"/></g><g><path d="M32.506 3.576l1.17-3.252h-6.504l1.17 3.252z" fill="#cca15c"/></g></svg><svg viewBox="0 0 37 37" id="benefits-05" xmlns="http://www.w3.org/2000/svg"><path d="M14.526 6.857H9.379l8.823 8.895z" fill="#cca15c"/><path d="M24.462 6.857h-7.588l3.794 9.179z" fill="#cca15c"/><path d="M21.422.354h-1.516l-2.704 4.335h6.93z" fill="#cca15c"/><path d="M9.38 4.69h5.266L17.35.353h-3.635z" fill="#cca15c"/><g><path d="M26.81 6.857l-3.676 8.895 8.823-8.895z" fill="#cca15c"/></g><g><path d="M27.62.354h-3.642l2.71 4.335h5.269z" fill="#cca15c"/></g><g><path d="M11.087 33.58l-8.032-8.032L0 28.609l8.022 8.037z" fill="#cca15c"/></g><g><path d="M31.453 19.928l-4.99 4.926a5.422 5.422 0 01-3.833 1.588h-9.622v-2.168h9.828v-4.336H10.902a5.42 5.42 0 00-3.833 1.588l-2.483 2.487 8.034 8.035 1.27-1.27h8.748c2.582 0 5.132-1.027 6.958-2.852L37 20.516l-.793-.793c-1.3-1.283-3.463-1.086-4.754.205z" fill="#cca15c"/></g></svg><svg viewBox="0 0 37 37" id="benefits-06" xmlns="http://www.w3.org/2000/svg"><path d="M17.416 0h2.168v2.168h-2.168z" fill="#cca15c"/><g><path d="M24.353 2.602c.976 1.192 1.822 2.731 2.472 4.639l-2.038.694c-1.236-3.556-3.23-5.767-5.203-5.767v7.588h-2.168V2.168c-1.973 0-3.968 2.21-5.203 5.767l-2.038-.694c.65-1.908 1.496-3.447 2.471-4.64C5.08 4.38 0 11.346 0 18.002v.499h2.168c0-.304 0-.607.022-.91a2.757 2.757 0 012.731-2.342h1.07A2.757 2.757 0 018.744 18v.499h2.168v-.542a2.748 2.748 0 012.753-2.71h.998A2.757 2.757 0 0117.416 18v10.327h-2.168v2.168h2.168v2.168A4.35 4.35 0 0021.752 37a4.349 4.349 0 004.336-4.336v-2.168H23.92v2.168a2.174 2.174 0 01-2.168 2.168 2.174 2.174 0 01-2.168-2.168V18a2.757 2.757 0 012.753-2.753h.998a2.76 2.76 0 012.753 2.515v.737h2.168V18a2.757 2.757 0 012.753-2.753h.997c1.453 0 2.696 1.149 2.783 2.58.021.216.043.433.043.672H37V18c0-6.569-5.037-13.622-12.647-15.4z" fill="#cca15c"/></g></svg><svg viewBox="0 0 39 39" id="cart" xmlns="http://www.w3.org/2000/svg"><path d="M16.512 34.406a4.071 4.071 0 11-8.142 0 4.071 4.071 0 018.142 0zm-1.81 0a2.262 2.262 0 10-4.523 0 2.262 2.262 0 004.524 0z" fill="#fff"/><path d="M33.703 34.406a4.071 4.071 0 11-8.142 0 4.071 4.071 0 018.142 0zm-1.81 0a2.262 2.262 0 10-4.523 0 2.262 2.262 0 004.524 0z" fill="#fff"/><g><path d="M38.951 7.353l-2.171 9.093a4.977 4.977 0 01-4.298 3.8l-19.046 1.99-.362.815c-.263.72-.18 1.521.226 2.172a2.307 2.307 0 001.9 1.085H32.8a.905.905 0 110 1.81H15.2a4.207 4.207 0 01-3.393-1.9 4.342 4.342 0 01-.408-3.936l.453-1.04L6.107 3.915A2.352 2.352 0 003.936 2.33H.905a.905.905 0 010-1.81h3.03a4.162 4.162 0 013.891 2.805l.815 2.489 29.45.407c.278.027.536.156.725.362a.769.769 0 01.135.769zm-1.99.679L9.229 7.624l4.207 12.758 18.82-1.946a3.076 3.076 0 002.76-2.397z" fill="#fff"/></g></svg><svg fill="none" viewBox="0 0 39 39" id="cart-dark" xmlns="http://www.w3.org/2000/svg"><path d="M12.44 30.335a4.071 4.071 0 100 8.143 4.071 4.071 0 000-8.143zm0 6.334a2.262 2.262 0 110-4.524 2.262 2.262 0 010 4.523zM29.632 30.335a4.071 4.071 0 100 8.143 4.071 4.071 0 000-8.143zm0 6.334a2.262 2.262 0 110-4.524 2.262 2.262 0 010 4.523zM38.816 6.584a1.131 1.131 0 00-.724-.362L8.64 5.815l-.815-2.488A4.162 4.162 0 003.936.522H.905a.905.905 0 100 1.81h3.03c.985.021 1.85.653 2.172 1.583l5.746 17.327-.453 1.04a4.343 4.343 0 00.408 3.936 4.207 4.207 0 003.393 1.9h17.598a.905.905 0 100-1.81H15.2a2.307 2.307 0 01-1.9-1.085 2.488 2.488 0 01-.226-2.172l.362-.814 19.046-1.99a4.976 4.976 0 004.298-3.8l2.172-9.094a.77.77 0 00-.136-.769zm-3.8 9.455a3.076 3.076 0 01-2.76 2.398l-18.82 1.945L9.23 7.625l27.732.407-1.945 8.007z" fill="#222"/></svg><svg fill="none" viewBox="0 0 14 11" id="check" xmlns="http://www.w3.org/2000/svg"><path d="M1 5.364L4.75 9 13 1" stroke="#fff" stroke-width="2"/></svg><svg viewBox="0 0 24 34" id="location" xmlns="http://www.w3.org/2000/svg"><path d="M16.457 11.797a4.352 4.352 0 01-4.346 4.347 4.352 4.352 0 01-4.347-4.347 4.352 4.352 0 014.347-4.346 4.352 4.352 0 014.346 4.346zm-1.242 0a3.108 3.108 0 00-3.104-3.104 3.108 3.108 0 00-3.105 3.104 3.108 3.108 0 003.105 3.105 3.108 3.108 0 003.104-3.105z" fill="#c29958"/><g><path d="M21.527 20.242L12 34l-9.54-13.777C-1.099 15.479-.58 7.649 3.581 3.488A11.829 11.829 0 0112.001 0c3.18 0 6.17 1.239 8.42 3.488 4.162 4.161 4.679 11.99 1.106 16.754zM19.543 4.365A10.597 10.597 0 0012 1.242c-2.849 0-5.527 1.11-7.541 3.123C.703 8.122.24 15.193 3.469 19.497L12 31.817l8.518-12.301c3.243-4.323 2.78-11.394-.976-15.15z" fill="#c29958"/></g></svg><svg viewBox="0 0 512.005 512.005" id="search" xmlns="http://www.w3.org/2000/svg"><path d="M505.749 475.587l-145.6-145.6c28.203-34.837 45.184-79.104 45.184-127.317C405.333 90.926 314.41.003 202.666.003S0 90.925 0 202.669s90.923 202.667 202.667 202.667c48.213 0 92.48-16.981 127.317-45.184l145.6 145.6c4.16 4.16 9.621 6.251 15.083 6.251s10.923-2.091 15.083-6.251c8.341-8.341 8.341-21.824-.001-30.165zM202.667 362.669c-88.235 0-160-71.765-160-160s71.765-160 160-160 160 71.765 160 160-71.766 160-160 160z" fill="#FFF"/></svg></svg>