<?xml version="1.0" encoding="UTF-8"?>
<svg id="SVGDoc" width="37" height="37" xmlns="http://www.w3.org/2000/svg" version="1.1" xmlns:xlink="http://www.w3.org/1999/xlink" xmlns:avocode="https://avocode.com/" viewBox="0 0 37 37"><defs></defs><desc>Generated with Avocode.</desc><g><g><title>Group</title><g><title>Vector</title><path d="M17.41595,-0.00005v0h2.16797v0v2.16788v0h-2.16797v0z" fill="#cca15c" fill-opacity="1"></path></g><g><title>Vector</title><path d="M24.35347,2.60124c0.97561,1.1927 1.82098,2.73148 2.47147,4.63939l-2.03785,0.69379c-1.23573,-3.55545 -3.23044,-5.76659 -5.20317,-5.76659v7.58798v0h-2.16797v0v-7.58798c-1.97273,0 -3.96744,2.21114 -5.20317,5.76659l-2.03785,-0.69379c0.65037,-1.9075 1.49586,-3.44669 2.47147,-4.63939c-7.56615,1.77773 -12.64641,8.74443 -12.64641,15.39967v0.49892v0h2.16797c0,-0.30363 0,-0.60727 0.02163,-0.91049c0.19501,-1.32248 1.34411,-2.34132 2.7317,-2.34132h1.06945c1.51749,0 2.75333,1.23555 2.75333,2.7529v0.49892v0h2.16797v0v-0.54218c0.02174,-1.49593 1.23573,-2.70964 2.75345,-2.70964h0.99712c1.5176,0 2.75345,1.23555 2.75345,2.7529v10.32687v0h-2.16797v0v2.16829v0h2.16797v0v2.16788c0,2.38458 1.95122,4.33575 4.33594,4.33575c2.38461,0 4.33594,-1.95117 4.33594,-4.33575v-2.16788v0h-2.16797v0v2.16788c0,1.19229 -0.97561,2.16788 -2.16797,2.16788c-1.19236,0 -2.16797,-0.97559 -2.16797,-2.16788c0,-0.73746 0,-14.66304 0,-14.66304c-0.00011,-1.51735 1.23562,-2.7529 2.75333,-2.7529h0.99712c1.4526,0 2.62333,1.10536 2.75345,2.51477v0.73705v0h2.16797v0v-0.49892c-0.00011,-1.51735 1.23562,-2.7529 2.75333,-2.7529h0.99712c1.4526,0 2.69566,1.14862 2.78229,2.57986c0.02163,0.21671 0.04337,0.43341 0.04337,0.67195h2.16797v0v-0.49892c0,-6.56873 -5.03689,-13.62195 -12.64652,-15.39967z" fill="#cca15c" fill-opacity="1"></path></g></g></g></svg>