<?xml version="1.0" encoding="UTF-8"?>
<svg id="SVGDoc" width="37" height="37" xmlns="http://www.w3.org/2000/svg" version="1.1" xmlns:xlink="http://www.w3.org/1999/xlink" xmlns:avocode="https://avocode.com/" viewBox="0 0 37 37"><defs></defs><desc>Generated with Avocode.</desc><g><g><title>Group</title><g><title>Vector</title><path d="M30.42377,18.49974c0,6.56873 -5.3548,11.92374 -11.92383,11.92374c-6.56902,0 -11.92383,-5.35501 -11.92383,-11.92374c0,-6.56914 5.3548,-11.92374 11.92383,-11.92374c6.56902,0 11.92383,5.3546 11.92383,11.92374zM27.02007,15.72459l-5.8968,-0.8454l-2.62333,-5.33318l-2.62333,5.33318l-5.8968,0.8454l4.27082,4.16272l-1.01887,5.85352l5.26817,-2.77515l5.26817,2.77515l-1.01887,-5.85352z" fill="#cca15c" fill-opacity="1"></path></g><g><title>Vector</title><path d="M36.99989,18.49974c0,10.16785 -8.33221,18.49988 -18.49995,18.49988c-10.16773,0 -18.49995,-8.33203 -18.49995,-18.49988c0,-10.16785 8.33221,-18.49988 18.49995,-18.49988c10.16773,0 18.49995,8.33203 18.49995,18.49988zM32.59174,18.49974c0,-7.76143 -6.33041,-14.09161 -14.0918,-14.09161c-7.76138,0 -14.0918,6.33018 -14.0918,14.09161c0,7.76143 6.33041,14.09203 14.0918,14.09203c7.76138,0 14.0918,-6.3306 14.0918,-14.09203z" fill="#cca15c" fill-opacity="1"></path></g><g><title>Vector</title><path d="M19.69185,16.86003v0l-1.19202,-2.41466v0l-1.1919,2.41466v0l-2.66441,0.38644v0l1.92764,1.87907v0l-0.4541,2.65485v0l2.38277,-1.25327v0l2.38289,1.25327v0l-0.4541,-2.65485v0l1.92764,-1.87907v0z" fill="#cca15c" fill-opacity="1"></path></g></g></g></svg>