<?xml version="1.0" encoding="UTF-8"?>
<svg id="SVGDoc" width="37" height="37" xmlns="http://www.w3.org/2000/svg" version="1.1" xmlns:xlink="http://www.w3.org/1999/xlink" xmlns:avocode="https://avocode.com/" viewBox="0 0 37 37"><defs></defs><desc>Generated with Avocode.</desc><g><g><title>Group</title><g><title>Vector</title><path d="M17.416,-0.0002v0h2.16797v0v2.16788v0h-2.16797v0z" fill="#cca15c" fill-opacity="1"></path></g><g><title>Vector</title><path d="M24.35341,2.6015c0.97561,1.19229 1.8211,2.73148 2.47158,4.63939l-2.03796,0.69379c-1.23562,-3.55586 -3.23032,-5.767 -5.20306,-5.767v7.58798v0h-2.16797v0v-7.58798c-1.97285,0 -3.96755,2.21114 -5.20329,5.767l-2.03785,-0.69379c0.65048,-1.90791 1.49586,-3.4471 2.47147,-4.63939c-7.56615,1.77731 -12.64641,8.74402 -12.64641,15.39967v0.4985v0h2.16797c0,-0.30322 0,-0.60686 0.02174,-0.91049c0.19501,-1.32248 1.34411,-2.34132 2.73159,-2.34132h1.06945c1.5176,0 2.75345,1.23555 2.75345,2.75331v0.4985v0h2.16797v0v-0.54176c0.02163,-1.49593 1.23573,-2.71005 2.75333,-2.71005h0.99724c1.5176,0 2.75333,1.23555 2.75333,2.75331v10.32687v0h-2.16797v0v2.16788v0h2.16797v0v2.16788c0,2.38458 1.95133,4.33617 4.33594,4.33617c2.38472,0 4.33594,-1.95158 4.33594,-4.33617v-2.16788v0h-2.16797v0v2.16788c0,1.19229 -0.97561,2.16788 -2.16797,2.16788c-1.19236,0 -2.16797,-0.97559 -2.16797,-2.16788c0,-0.73705 0,-14.66263 0,-14.66263c0,-1.51776 1.23573,-2.75331 2.75333,-2.75331h0.99724c1.4526,0 2.62333,1.10577 2.75333,2.51477v0.73705v0h2.16797v0v-0.4985c0,-1.51776 1.23573,-2.75331 2.75333,-2.75331h0.99724c1.4526,0 2.69554,1.14903 2.78217,2.57986c0.02174,0.21671 0.04349,0.43341 0.04349,0.67195h2.16797v0v-0.4985c-0.00011,-6.56914 -5.03689,-13.62236 -12.64664,-15.39967z" fill="#cca15c" fill-opacity="1"></path></g></g></g></svg>