<?xml version="1.0" encoding="UTF-8"?>
<svg id="SVGDoc" width="37" height="37" xmlns="http://www.w3.org/2000/svg" version="1.1" xmlns:xlink="http://www.w3.org/1999/xlink" xmlns:avocode="https://avocode.com/" viewBox="0 0 37 37"><defs></defs><desc>Generated with Avocode.</desc><g><g><title>Group</title><g><title>Vector</title><path d="M36.99994,29.33954c0,4.18414 -3.47603,7.66008 -7.6601,7.66008c-4.18419,0 -7.58789,-3.47594 -7.58789,-7.66008c0,-4.18414 3.4037,-7.58798 7.58789,-7.58798c4.18407,0 7.6601,3.40384 7.6601,7.58798zM33.35065,27.93054l-1.5176,-1.51776l-3.57719,3.55545l-1.40923,-1.38757l-1.51749,1.51776l2.92671,2.94818z" fill="#cca15c" fill-opacity="1"></path></g><g><title>Vector</title><path d="M19.58398,29.33954c0,0.97559 0.19512,1.88608 0.45525,2.77515c-1.21399,0.2818 -2.44972,0.47708 -3.7072,0.47708c-8.97549,0 -16.33209,-7.28435 -16.33209,-16.2599c0,-8.97556 7.35661,-16.332 16.33209,-16.332c8.97537,0 16.25977,7.35645 16.25977,16.332c0,1.25739 -0.19524,2.49294 -0.47688,3.70706c-0.88898,-0.25996 -1.79958,-0.45525 -2.77508,-0.45525c-5.37655,0 -9.75586,4.37943 -9.75586,9.75586zM26.08788,17.4158h2.16797v-2.16788h-2.16797zM22.46732,8.65695l1.53923,1.5396l1.51749,-1.5396l-1.51749,-1.51735zM15.24804,6.576h2.16797v-2.16788h-2.16797zM6.57616,15.24792h-2.16797v2.16788h2.16797zM10.19662,24.00636l-1.53923,-1.53918l-1.51749,1.53918l1.51749,1.51776zM10.19662,8.65695l-1.53923,-1.51735l-1.51749,1.51735l1.51749,1.5396zM17.41601,26.08772h-2.16797v2.16788h2.16797zM21.75195,15.24792h-4.33594v-6.50404h-2.16797v8.67192h6.50391z" fill="#cca15c" fill-opacity="1"></path></g></g></g></svg>