<?xml version="1.0" encoding="UTF-8"?>
<svg id="SVGDoc" width="37" height="31" xmlns="http://www.w3.org/2000/svg" version="1.1" xmlns:xlink="http://www.w3.org/1999/xlink" xmlns:avocode="https://avocode.com/" viewBox="0 0 37 31"><defs></defs><desc>Generated with Avocode.</desc><g><g><title>Group</title><g><title>Vector</title><path d="M-0.00011,22.00372v0h16.74603v0l-3.25195,6.50404v0h-2.5819v0v2.16788v0h15.17578v0v-2.16788v0h-2.5819v0l-3.25195,-6.50404v0h16.74591v0v-2.16788v0h-37.00001v0z" fill="#cca15c" fill-opacity="1"></path></g><g><title>Vector</title><path d="M7.6601,16.2153v0l6.30867,-6.3306c1.71284,-1.69121 1.71284,-4.42268 0,-6.11348c-1.62598,-1.64795 -4.48746,-1.64795 -6.11343,0l-0.19524,0.17303v0l-0.19524,-0.17345c-1.62598,-1.64754 -4.55978,-1.64754 -6.18576,0c-0.82386,0.80255 -1.27922,1.90791 -1.27922,3.05695c0,1.14903 0.45536,2.25481 1.27922,3.05695z" fill="#cca15c" fill-opacity="1"></path></g><g><title>Vector</title><path d="M34.83192,11.16393v-2.16788c0,-1.30806 -0.67005,-2.45956 -1.58695,-3.25223h-5.6424c-0.9169,0.79266 -1.51474,1.94417 -1.51474,3.25223v2.16788c-1.1974,0 -2.16797,0.97064 -2.16797,2.16788c0,1.19724 0.97057,2.16788 2.16797,2.16788h8.74409c1.1974,0 2.16797,-0.97064 2.16797,-2.16788c0,-1.19724 -0.97057,-2.16788 -2.16797,-2.16788z" fill="#cca15c" fill-opacity="1"></path></g><g><title>Vector</title><path d="M32.50637,3.57594v0l1.16936,-3.25182v0h-6.50391v0l1.16936,3.25182v0z" fill="#cca15c" fill-opacity="1"></path></g></g></g></svg>