<?xml version="1.0" encoding="UTF-8"?>
<svg id="SVGDoc" width="37" height="33" xmlns="http://www.w3.org/2000/svg" version="1.1" xmlns:xlink="http://www.w3.org/1999/xlink" xmlns:avocode="https://avocode.com/" viewBox="0 0 37 33"><defs></defs><desc>Generated with Avocode.</desc><g><g><title>Group</title><g><title>Vector</title><path d="M28.58469,22.30011c2.1032,-1.30106 5.03002,-1.08435 6.82972,0.69379c2.10297,2.12462 2.1246,5.55029 0,7.67491c-2.1104,2.11061 -5.56377,2.11185 -7.67532,0c-1.84284,-1.86465 -2.08134,-4.72632 -0.69374,-6.82951c0.00023,-0.00041 0.0008,-0.00082 0.00103,-0.00124l-5.58025,-5.59973l1.51772,-1.51776l5.59959,5.58037c0.00046,0 0.0008,-0.00082 0.00126,-0.00082zM34.82893,26.83156c0,-0.82397 -0.30361,-1.64795 -0.95398,-2.29848c-1.25759,-1.27922 -3.31718,-1.27922 -4.59641,0c-1.27934,1.25739 -1.27934,3.31732 0,4.59654c1.23573,1.23596 3.36056,1.23596 4.59641,0c0.65037,-0.62869 0.95398,-1.45267 0.95398,-2.29807z" fill="#cca15c" fill-opacity="1"></path></g><g><title>Vector</title><path d="M15.67735,17.04604v0l-1.53934,-1.51776v0l2.2982,-2.29807v0l-1.53934,-1.5396v0l-2.2982,2.29807v0l-1.51772,-1.53918v0l3.81592,-3.81583v0l8.08708,8.08731v0l3.03532,-3.03552c2.97054,-2.94859 2.97054,-7.76184 0,-10.71043c-2.94857,-2.97043 -7.76184,-2.97043 -10.71041,0l-1.14922,1.1272v0l-1.14922,-1.1272c-2.94857,-2.97043 -7.83405,-2.97043 -10.78262,0c-2.97043,2.94859 -2.97043,7.76184 0,10.71043l11.93184,11.8813v0l7.30659,-7.32843v0l-3.49068,-3.49077v0z" fill="#cca15c" fill-opacity="1"></path></g></g></g></svg>