<?xml version="1.0" encoding="UTF-8"?>
<svg id="SVGDoc" width="24" height="34" xmlns="http://www.w3.org/2000/svg" version="1.1" xmlns:xlink="http://www.w3.org/1999/xlink" xmlns:avocode="https://avocode.com/" viewBox="0 0 24 34"><defs></defs><desc>Generated with Avocode.</desc><g><g><title>Group</title><g><title>Vector</title><path d="M16.45731,11.79733c0,2.39612 -1.9503,4.34647 -4.34647,4.34647c-2.39616,0 -4.34647,-1.95035 -4.34647,-4.34647c0,-2.39612 1.9503,-4.34647 4.34647,-4.34647c2.39616,0 4.34647,1.95035 4.34647,4.34647zM15.21539,11.79733c0,-1.71181 -1.39263,-3.10474 -3.10455,-3.10474c-1.71192,0 -3.10467,1.39293 -3.10467,3.10474c0,1.71181 1.39275,3.10474 3.10467,3.10474c1.71192,0 3.10455,-1.39293 3.10455,-3.10474z" fill="#c29958" fill-opacity="1"></path></g><g><title>Vector</title><path d="M21.52658,20.24184l-9.5256,13.7579l-9.53991,-13.77686c-3.55923,-4.74403 -3.04195,-12.57385 1.12015,-16.73534c2.24899,-2.24904 5.23876,-3.48788 8.41976,-3.48788c3.18031,0 6.17065,1.23885 8.41965,3.48788c4.1621,4.16148 4.67937,11.9913 1.10596,16.75429zM19.54263,4.36549c-2.01485,-2.01421 -4.69288,-3.12369 -7.54166,-3.12369c-2.84889,0 -5.52692,1.10948 -7.5412,3.12369c-3.75664,3.75609 -4.21921,10.82703 -0.99094,15.13147l8.53214,12.32089l8.51841,-12.30194c3.24245,-4.32339 2.77988,-11.39433 -0.97675,-15.15042z" fill="#c29958" fill-opacity="1"></path></g></g></g></svg>