<?xml version="1.0" encoding="UTF-8"?>
<svg width="217px" height="237px" viewBox="0 0 217 237" version="1.1" xmlns="http://www.w3.org/2000/svg" xmlns:xlink="http://www.w3.org/1999/xlink">
    <!-- Generator: Sketch 54.1 (76490) - https://sketchapp.com -->
    <title>lo_5</title>
    <desc>Created with Sketch.</desc>
    <defs>
        <linearGradient x1="50%" y1="0%" x2="50%" y2="100%" id="linearGradient-1">
            <stop stop-color="#F7D73D" offset="0%"></stop>
            <stop stop-color="#EFAA17" offset="100%"></stop>
        </linearGradient>
    </defs>
    <g id="Page-1" stroke="none" stroke-width="1" fill="none" fill-rule="evenodd">
        <g id="lo_5" transform="translate(1.000000, 0.000000)" fill-rule="nonzero">
            <g id="IMG_2415_2" transform="translate(27.000000, 0.000000)">
                <g id="Group">
                    <circle id="Oval" fill="url(#linearGradient-1)" cx="85" cy="85" r="85"></circle>
                    <path d="M98.1430158,51.4964365 C100.182427,50.6803421 102.434174,51.1259396 104.572346,51.0858859 C105.930308,51.0057785 107.125314,51.6866916 108.290692,52.3025174 L108.29563,52.4376986 C109.584458,53.0535244 110.769589,53.8796322 112.112736,54.3953237 L112.162116,54.7508003 L112.739867,54.6005989 L112.710239,54.966089 C113.36206,55.1613509 114.008944,55.3816463 114.641013,55.631982 C114.72496,55.8022102 114.887915,56.1526802 114.971862,56.3229084 C116.166868,57.2090968 117.431006,57.9951508 118.680331,58.796225 L118.754402,58.9113794 C120.744433,60.0228698 122.383863,61.6650719 123.949221,63.3122807 C124.107239,63.4524687 124.418335,63.7378514 124.571415,63.8830461 L124.477592,64.2535429 L124.897326,64.1484019 C125.519519,64.9044157 126.151588,65.6604294 126.798472,66.3964164 C127.287338,66.9171146 127.771266,67.4428195 128.230503,67.9835446 C130.56126,70.757264 132.383396,73.9515473 134.087021,77.1508374 C134.022827,77.2760052 133.899376,77.5313476 133.835181,77.6565154 C132.580919,77.0106494 131.129134,76.9806091 129.771172,77.2159246 C128.89714,79.0233482 127.282399,81.5267051 129.24774,83.2089609 C129.692164,82.227645 130.141526,81.2413224 130.630392,80.2800334 C131.958725,80.1047984 133.301873,80.0847716 134.640082,80.199926 C137.385633,82.3277793 141.928631,83.6195115 144.639616,80.7857115 C144.42728,81.6718998 144.160626,82.543068 143.829777,83.3892026 C142.708842,84.6258609 141.35088,85.8174587 139.568247,85.7023043 C137.879437,85.9776736 136.323954,84.3855386 134.714153,85.3868814 C135.840026,86.4633248 137.360943,87.3144661 137.874499,88.8915809 C137.948569,89.8028028 137.751048,90.709018 137.597969,91.600213 C138.807789,92.2811261 139.839839,93.2374084 141.064474,93.8982946 C141.745924,94.7043755 142.600205,95.3001744 143.548309,95.7357585 C144.88158,95.3902953 146.027206,94.6142547 147,93.6429522 C146.97531,93.9784021 146.920991,94.6442949 146.891363,94.9797448 C146.051896,96.0211412 145.577844,97.6833701 144.071741,97.8736253 C141.874313,98.3893168 138.70409,98.1940549 137.983136,95.5455034 C136.649865,97.6483231 135.519053,99.8763107 134.259852,102.024191 C133.553713,104.327279 133.124103,106.740515 132.062424,108.918436 C131.469859,110.545618 129.479828,109.654423 128.21569,109.684463 C127.223143,109.07865 126.215782,108.487858 125.178794,107.96716 C123.391223,105.588971 125.470139,102.164379 123.238144,99.9814517 C120.922202,97.2728196 120.17162,93.4777306 120.788875,90.0030714 C121.272803,88.576158 121.672784,86.9690029 122.981366,86.0627877 C123.257895,85.4469619 123.465293,84.8061026 123.59862,84.1402097 C122.996179,84.4005588 122.398676,84.6709213 121.811049,84.956304 C120.571601,86.022734 119.559303,87.3294862 119.01118,88.8965876 C118.858101,89.2770979 118.714897,89.6576081 118.571695,90.0431251 C118.097642,90.9994074 117.495201,91.8755823 116.81869,92.6916766 C116.310071,91.8004816 115.623683,90.9243067 115.613808,89.8478633 C115.475542,86.808788 115.554551,83.7596994 115.618746,80.7206242 L115.095313,80.7106108 C114.858287,81.8571482 114.576819,82.9936722 114.423739,84.1552298 C114.27066,84.2203171 113.964501,84.3454849 113.806484,84.4105722 C114.255846,86.7537142 113.915121,89.1569368 114.004006,91.5251123 C113.79167,93.6579724 115.623683,95.1099193 116.912512,96.5117992 C118.991428,98.5595451 120.808627,100.85262 122.556694,103.190755 C124.299823,105.764206 122.522128,108.833322 120.62592,110.695819 C117.82605,112.368062 116.507593,115.787647 113.510202,117.174507 C112.478151,117.374775 111.510295,116.879111 110.527624,116.663822 C110.799217,117.134453 111.075747,117.605084 111.357215,118.070708 C111.357215,118.376118 111.357215,118.986937 111.357215,119.292347 C110.651076,119.30236 109.944935,119.322386 109.238796,119.337407 L109.268424,119.69789 C108.266001,119.737944 107.263579,119.818052 106.261156,119.913179 C106.280909,118.581393 106.280909,117.249607 106.285847,115.917821 C106.537687,115.407137 106.779651,114.891445 107.006801,114.370747 C108.330196,114.370747 109.658529,114.375754 110.981924,114.310667 C111.154756,113.960197 111.505357,113.25425 111.683126,112.90378 C111.273269,112.808652 110.448616,112.623404 110.038758,112.528276 C110.626385,112.092692 111.263392,111.727202 111.959656,111.5019 C112.443585,111.411779 112.93245,111.316652 113.416379,111.216517 C114.902729,110.180127 116.714991,109.464167 117.732227,107.877039 C118.32973,107.111012 117.855678,106.21481 117.668033,105.403723 C117.465573,105.278555 117.060654,105.023212 116.858194,104.898045 C116.3397,104.647709 115.821205,104.407387 115.297772,104.172071 C110.502934,100.972781 105.446379,98.1940549 100.878691,94.6643218 C99.1059341,92.1209113 98.8639699,88.9817018 98.9775451,85.9676601 C99.2244473,84.8962234 99.3775266,83.7947464 99.8515786,82.7934037 C99.6046764,82.5981419 99.3627122,82.40288 99.11581,82.2076182 C98.9182885,82.648209 98.720767,83.0837931 98.513369,83.5193772 C96.7751785,86.878882 97.0418325,90.8391926 97.4566279,94.4840801 C97.7578487,96.6820274 100.167613,97.1176115 101.649026,98.2641489 C103.609428,99.8062167 105.964874,100.652351 108.073418,101.939077 C108.098108,102.31458 108.11786,102.690084 108.14255,103.070594 C106.246342,103.310916 104.636541,104.452447 103.155128,105.608998 C101.095965,107.421428 98.5479353,108.557952 96.6220991,110.540611 C94.9530411,111.732209 93.081523,113.309324 93.3037354,115.622425 C93.0074526,116.518627 92.6173475,117.379782 92.2272419,118.240937 C93.6987784,118.381124 95.3628985,118.075715 96.6270371,119.047017 C97.8566094,120.053367 99.328146,121.174871 99.1750666,122.987301 C98.5775636,122.47161 98.0096888,121.940898 97.4220616,121.425206 C97.441814,121.810724 97.4763803,122.591771 97.4911947,122.977288 C95.6295525,122.942241 93.7679109,122.932227 91.9062693,122.847113 C92.6420373,121.445233 92.1778618,120.038347 91.3482704,118.826722 C90.3606623,118.255957 89.2644171,117.955554 88.2521186,118.736601 C88.2965609,118.170843 88.3854457,117.034318 88.429888,116.463553 C89.9804332,112.373068 93.022267,109.143738 95.3283323,105.493843 C95.5159779,104.787897 95.7085615,104.08195 95.906083,103.376004 C97.6097072,103.275869 99.3330839,103.155708 100.987328,102.685077 C100.562656,101.082929 98.7405188,101.788875 97.5899555,101.653694 C95.6789332,101.823922 93.9209903,100.982794 92.1087293,100.557224 C91.6741816,100.331922 91.2396338,100.101613 90.805086,99.8662973 C87.3682091,100.246808 84.2473668,98.5795719 80.9191267,98.1239609 C78.5883711,97.6282963 76.4847653,96.4066582 74.1688238,95.8759465 C70.9887249,95.6256108 67.5271577,95.5054497 64.8211109,97.5481889 C64.6779077,97.4230211 64.3915013,97.1776921 64.2482981,97.0525243 C66.0605594,94.6342815 67.9024489,91.9556897 68.2036694,88.8465205 C64.9396239,91.8605622 62.8360182,95.9310204 59.6756715,99.0552097 C57.6757646,100.992808 56.1400337,103.406044 53.927791,105.11834 C52.3377417,105.794246 51.1674258,107.065952 49.8341545,108.117361 C49.1971472,108.192462 48.6144583,108.412758 48.0860878,108.783254 C45.1825193,108.247536 42.2295704,108.062288 39.2766215,108.207482 C38.7334369,108.33265 38.2495089,108.608019 37.7458286,108.838328 C37.6174395,109.113697 37.3557233,109.664436 37.2273342,109.939805 C37.2520244,112.488223 37.3063429,115.041646 37.6865721,117.56503 C36.965618,117.850413 36.2594781,118.165836 35.538524,118.451218 C35.5582761,118.701554 35.5928424,119.192212 35.6125946,119.437541 C36.8717952,119.422521 38.1309958,119.417514 39.3951345,119.412508 C39.6864789,119.823058 39.9778234,120.233609 40.2642298,120.649166 C40.6839633,120.894495 41.0987589,121.139824 41.5184924,121.380146 C42.2394465,122.436562 42.9060821,123.52302 43.4690188,124.674564 C42.2295704,124.384174 41.5333065,123.24765 40.6889014,122.396509 C40.6938394,123.26267 40.6987775,124.128832 40.7135916,125 C39.4790812,124.98498 38.2495089,124.98498 37.0199365,124.944926 C36.3928052,124.694591 35.7607358,124.464282 35.1237285,124.248993 C35.1484187,123.317744 35.1434806,122.386495 35.1138524,121.460254 C34.9410209,121.224938 34.6052341,120.759314 34.4373407,120.523998 C33.7904572,120.108441 33.1435738,119.692884 32.4966903,119.277326 C31.9979481,119.557702 31.4992059,119.833072 31.0004637,120.103434 C30.9905876,118.901823 31.1387289,117.705218 31.4201972,116.538654 C32.0374524,114.641109 32.9756804,112.878746 33.7756431,111.056302 C34.8471981,109.068637 34.713871,106.735509 35.2619936,104.592635 C36.3533008,103.981816 37.5729971,103.771534 38.8025695,103.676406 C41.4938022,103.040554 43.3900102,100.707425 44.4319369,98.2240952 C44.2936718,92.5615021 44.5850163,86.8989089 44.318362,81.2413224 C44.915865,81.4966648 45.5183062,81.7269736 46.1306233,81.9272422 C46.2688885,82.0073496 46.5355427,82.1675644 46.6738079,82.2476719 C48.2441051,82.4179002 49.6366329,83.399216 51.2464344,83.294075 C53.7450835,83.3191086 56.2832369,83.2640347 58.6979393,82.5681016 C61.6706404,81.0610808 63.7396798,78.3574554 65.6655161,75.7089038 C65.9173562,75.0780579 65.8383475,74.3721112 65.9222942,73.7112251 C62.4459129,73.0202986 58.8213903,73.1154261 55.3252568,73.6461378 C55.3943894,74.4772522 55.4289557,75.3133735 55.3993275,76.1545013 C55.9276979,76.0193201 56.9844389,75.758971 57.5128093,75.6287964 L57.2856594,75.3133735 C59.3645749,75.163172 61.4632426,75.0680445 63.5421582,75.3434137 C62.5891161,76.4298706 61.6854545,77.576408 60.6089614,78.537697 C59.0979206,79.6842345 57.3399779,80.410208 55.582035,81.0660874 C53.1475805,81.1912553 50.6983118,81.1512016 48.3132377,80.6054698 C44.3578664,79.1184758 40.1555929,77.716596 37.1433875,74.5623664 L37.0742549,74.4622321 C35.8397445,73.4058155 34.8768264,72.0790364 33.7756431,70.8924452 C33.6275019,70.6371029 33.3361574,70.1214114 33.1880161,69.8660689 C31.9781959,67.1924838 31.7954884,64.2034758 32.2053459,61.3246154 C32.5411327,59.512185 33.9682267,58.2805335 35.4397631,57.3693116 C38.027297,56.9187074 40.6889014,57.0789222 43.0591614,58.2805335 C43.0887897,58.340614 43.1431081,58.4557685 43.1677983,58.5108423 C43.7159209,58.761178 44.2689816,59.0165204 44.8121662,59.2768695 C45.0491922,59.5171918 45.5232442,59.9978363 45.7602702,60.2381586 C45.9380397,60.1830847 46.2935787,60.072937 46.4713482,60.0178631 L46.4861623,60.6887628 L47.0688512,60.6336889 L47.0984795,60.9190716 C47.8539998,61.314602 48.5650778,61.7902398 49.2712178,62.2708843 C50.0563664,62.8867101 50.841515,63.5025358 51.6562919,64.0733012 C52.500697,64.5739726 53.330288,65.0996775 54.1351888,65.6604294 C55.107983,66.035933 56.1153435,66.3062955 57.122704,66.5816647 C61.2509068,66.8019602 65.413676,67.0723227 69.5270646,66.5366044 C70.6726903,66.2261881 71.8133779,65.8757182 72.9096232,65.4151005 C75.1317419,64.4237712 77.3341085,63.412415 79.3833957,62.0856359 C81.2302233,61.1644006 83.0375465,60.1380243 84.7214188,58.9263995 C85.6793988,58.2254597 86.7065115,57.624654 87.7237481,57.0188416 C88.2027381,56.6132978 88.6916042,56.2177675 89.1804704,55.8272438 C89.9754952,55.2915254 90.810024,54.8058742 91.6741816,54.3803035 C92.5136482,53.8345717 93.3531155,53.2938467 94.1678924,52.7030545 C94.2765291,52.693041 94.488865,52.6730142 94.5925637,52.657994 C95.7233753,52.1272824 96.9430717,51.8318863 98.1430158,51.4964365 Z M34.142169,61.1975221 C33.5387411,65.4369333 34.8544117,70.1331335 38.1238038,72.8943965 C40.3396701,75.4811559 43.7426077,76.4460582 46.2404034,78.5862937 C48.3227242,79.3099704 50.5732134,79.0225527 52.5912346,78.2013592 C52.1361906,78.1141074 51.2162104,77.9447363 50.7562203,77.8626169 C52.0323219,77.6521861 53.2738005,77.282649 54.5152792,76.9285094 L54.3223802,76.4409258 L55,76.543575 C54.9159158,75.5581428 54.8417238,74.5727106 54.8615084,73.5872784 C52.4230661,74.6394326 50.3308531,76.6256943 47.6154276,76.8771848 C46.79437,76.5897671 46.0227737,76.1689054 45.2610696,75.7531762 C45.5479452,72.5197269 48.0754177,70.0818089 50.7512742,68.7473695 C51.4635169,68.2854482 52.5912346,68.239256 52.759403,67.1717045 C51.7256618,67.1255124 50.6919206,67.1563071 49.6581794,67.2127642 C47.7737038,65.0058068 45.7408443,62.9374257 43.8662609,60.7150709 C42.9413346,59.5910623 41.5366336,59.1394059 40.3545085,58.3900669 C39.1822756,57.876821 37.8913357,58.0769869 36.6548031,58 C35.5963312,58.8622532 34.7455968,59.945202 34.142169,61.1975221 Z M131.014744,93.1570681 C130.865596,94.7539267 131.884169,95.8010471 132.437108,97 C133.415665,96.183246 133.019149,93.9581152 132.007852,93.5078534 L132.82271,93 C132.524414,93.0628273 132.226118,93.1570681 131.931459,93.2460733 C131.702281,93.2251309 131.243923,93.1780105 131.014744,93.1570681 Z M69.0777958,97.0664972 C71.0226904,96.8721207 72.9724473,97.2659888 74.9124797,97 C75.9189627,97.3989833 76.8525122,97.9718824 77.63047,98.7545034 C76.4197731,100.447625 75.1215559,102.150977 73.4149109,103.322351 C72.8606159,103.854328 72.3160454,104.401652 71.7666126,104.938744 C71.6256078,105.644638 71.4846029,106.345416 71.3387358,107.05131 C71.6985413,107.711167 72.063209,108.371024 72.4278769,109.035996 C74.4408428,110.841651 76.7115073,112.31482 78.5980551,114.273931 C78.2431119,114.483653 77.5332253,114.897981 77.178282,115.102588 C77.1636953,115.296964 77.1345219,115.685717 77.1247974,115.880094 C77.6888169,115.946591 78.2528363,116.018203 78.8168558,116.084701 C79.6045381,116.268846 80.3970827,116.401841 81.184765,116.575757 C81.8897893,117.256075 82.5802269,117.956853 83.2414911,118.688322 C83.445705,119.148688 83.6547812,119.603938 83.8784441,120.054073 C83.917342,120.534899 83.9562399,121.02084 84,121.501666 C83.3873582,120.938997 82.089141,120.499093 82.2398704,121.997837 C81.0875203,122.002953 79.9400324,122.002953 78.7876823,121.951801 C78.2479741,121.660236 77.6790924,121.445399 77.0810373,121.31752 C76.8184765,121.041301 76.5607779,120.770196 76.3030794,120.493978 C76.47812,118.678092 75.6466775,116.493914 73.7358184,116.21258 C72.2625608,113.025829 69.5737439,110.795615 67.356564,108.212453 C67.2982172,106.749515 67.2204214,105.286576 67.2884927,103.818522 C66.6855754,101.726417 64.7552674,100.688038 63,99.8593802 C63.8557537,99.460397 64.7017828,99.0307226 65.5575365,98.6419697 C66.7633711,98.202065 67.9400324,97.6700873 69.0777958,97.0664972 Z M82.3613676,119.998629 C81.8658187,119.263438 81.8792119,118.599044 82.4060116,118 C83.1515671,118.136146 83.2587128,120.058533 82.3613676,119.998629 Z" id="Combined-Shape" fill="#FFFFFF"></path>
                </g>
            </g>
            <path d="M20.609,193.979 L18.026,188.183 L25.586,188.183 L48.203,236 L40.517,236 L37.43,229.133 L23.129,229.133 C14.561,229.133 9.962,231.842 8.891,233.795 L7.694,236 L0.26,236 L20.609,193.979 Z M25.649,222.203 L34.343,222.203 L24.074,202.358 L13.679,224.849 C15.38,223.4 19.223,222.203 25.649,222.203 Z M95.894,236 L89.027,236 L89.027,195.932 L75.482,195.932 C74.285,208.154 71.45,222.581 63.89,231.59 C60.488,235.622 55.763,236 53.243,236 L51.983,236 L51.983,229.133 L53.243,229.133 C55.385,229.133 57.968,228.692 61.433,223.148 C66.473,215.084 67.859,205.571 68.867,195.932 L63.449,195.932 L60.488,189.002 L95.894,189.002 L95.894,236 Z M117.621,217.163 L117.621,229.133 L146.601,229.133 L146.601,236 L110.754,236 L110.754,189.002 L143.829,189.002 L143.829,195.932 L117.621,195.932 L117.621,210.17 C120.456,208.532 123.417,208.343 126.504,208.343 L138.750977,208.343 L138.750977,215.336 L126.504,215.336 C123.48,215.336 120.456,215.651 117.621,217.163 Z M196.757,219.683 C203.246,219.683 208.475,214.454 208.475,208.028 C208.475,201.539 203.246,196.31 196.757,196.31 L186.866,196.31 L186.866,221.573 C189.827,219.809 193.355,219.683 196.757,219.683 Z M170.234,219.683 C174.392,219.683 177.29,219.935 180.125,221.573 L180.125,196.31 L170.234,196.31 C163.745,196.31 158.516,201.539 158.516,208.028 C158.516,214.454 163.745,219.683 170.234,219.683 Z M196.757,226.55 C192.662,226.55 189.701,226.991 186.866,228.503 L186.866,236 L180.125,236 L180.125,228.503 C176.849,226.55 173.636,226.55 170.234,226.55 C159.965,226.55 151.019,218.234 151.019,208.028 C151.019,197.759 159.965,189.443 170.234,189.443 L180.125,189.443 L180.125,187.112 L186.866,187.112 L186.866,189.443 L196.757,189.443 C207.026,189.443 215.342,197.759 215.342,208.028 C215.342,218.234 207.026,226.55 196.757,226.55 Z" id="АЛЕФ" stroke="#ffffff" fill="#ffffff"></path>
        </g>
    </g>
</svg>
